name D:\school\WTK\thesis\model\3dpredictsim\Results\batch_windlass\Pog_s1_tmt_bCst_d05_k1000_WL20_ig24_pas.mot
datacolumns 128
datarows 4
range 1.07103720 1.10316832
endheader
time	pelvis_tilt	pelvis_list	pelvis_rotation	pelvis_tx	pelvis_ty	pelvis_tz	hip_flexion_l	hip_adduction_l	hip_rotation_l	hip_flexion_r	hip_adduction_r	hip_rotation_r	knee_angle_l	knee_angle_r	ankle_angle_l	ankle_angle_r	subtalar_angle_l	subtalar_angle_r	tmt_angle_l	tmt_angle_r	mtp_angle_l	mtp_angle_r	lumbar_extension	lumbar_bending	lumbar_rotation	arm_flex_l	arm_add_l	arm_rot_l	arm_flex_r	arm_add_r	arm_rot_r	elbow_flex_l	elbow_flex_r	pro_sup_l	pro_sup_r	glut_med1_l/activation	glut_med2_l/activation	glut_med3_l/activation	glut_min1_l/activation	glut_min2_l/activation	glut_min3_l/activation	semimem_l/activation	semiten_l/activation	bifemlh_l/activation	bifemsh_l/activation	sar_l/activation	add_long_l/activation	add_brev_l/activation	add_mag1_l/activation	add_mag2_l/activation	add_mag3_l/activation	tfl_l/activation	pect_l/activation	grac_l/activation	glut_max1_l/activation	glut_max2_l/activation	glut_max3_l/activation	iliacus_l/activation	psoas_l/activation	quad_fem_l/activation	gem_l/activation	peri_l/activation	rect_fem_l/activation	vas_med_l/activation	vas_int_l/activation	vas_lat_l/activation	med_gas_l/activation	lat_gas_l/activation	soleus_l/activation	tib_post_l/activation	flex_dig_l/activation	flex_hal_l/activation	tib_ant_l/activation	per_brev_l/activation	per_long_l/activation	per_tert_l/activation	ext_dig_l/activation	ext_hal_l/activation	ercspn_l/activation	intobl_l/activation	extobl_l/activation	glut_med1_r/activation	glut_med2_r/activation	glut_med3_r/activation	glut_min1_r/activation	glut_min2_r/activation	glut_min3_r/activation	semimem_r/activation	semiten_r/activation	bifemlh_r/activation	bifemsh_r/activation	sar_r/activation	add_long_r/activation	add_brev_r/activation	add_mag1_r/activation	add_mag2_r/activation	add_mag3_r/activation	tfl_r/activation	pect_r/activation	grac_r/activation	glut_max1_r/activation	glut_max2_r/activation	glut_max3_r/activation	iliacus_r/activation	psoas_r/activation	quad_fem_r/activation	gem_r/activation	peri_r/activation	rect_fem_r/activation	vas_med_r/activation	vas_int_r/activation	vas_lat_r/activation	med_gas_r/activation	lat_gas_r/activation	soleus_r/activation	tib_post_r/activation	flex_dig_r/activation	flex_hal_r/activation	tib_ant_r/activation	per_brev_r/activation	per_long_r/activation	per_tert_r/activation	ext_dig_r/activation	ext_hal_r/activation	ercspn_r/activation	intobl_r/activation	extobl_r/activation	
          1.07103720	         -2.92569684	         -1.35851410	          5.66458085	          1.33879650	          0.85703759	         -0.00264177	        -18.84272543	         -1.11018154	          8.27413668	         32.36011146	          1.81771323	         -3.86212693	         -7.21170403	        -19.80825798	         -0.03797713	         -0.48688259	         10.60525635	         -1.13722902	         -4.91765257	         -0.14616589	         26.95345334	          0.71215505	         -1.30169861	         -0.44863342	         -1.77544805	          5.43959134	        -13.46022328	         15.97291214	         -7.72433244	        -13.64044596	          8.76960855	         33.06054713	         16.90678186	         86.51662706	         86.51662706	          0.27468552	          0.09644892	          0.05119247	          0.32401159	          0.20167610	          0.09645014	          0.05000037	          0.05000006	          0.05000005	          0.07874455	          0.09993104	          0.08924133	          0.05000005	          0.05000010	          0.05000024	          0.05000016	          0.34889342	          0.05000044	          0.05000029	          0.05000150	          0.05000068	          0.05000035	          0.39525655	          0.61370972	          0.05000014	          0.05000084	          0.05000025	          0.29646478	          0.05000054	          0.05000084	          0.05000073	          0.32932191	          0.42085142	          0.26829062	          0.23716869	          0.23011395	          0.31574798	          0.05000000	          0.11067941	          0.18531702	          0.05000002	          0.05000000	          0.05000002	          0.05000000	          0.05000001	          0.05000000	          0.05000009	          0.05000040	          0.05000016	          0.05892468	          0.05000470	          0.05000036	          0.06318864	          0.06019548	          0.23413413	          0.05000015	          0.05030212	          0.13395494	          0.17571562	          0.15386687	          0.14349793	          0.10647073	          0.05000013	          0.05000694	          0.06944316	          0.05000028	          0.09854988	          0.11547634	          0.06944117	          0.07061050	          0.21946834	          0.05000829	          0.05327152	          0.05000021	          0.07869348	          0.08447663	          0.06913402	          0.06944384	          0.06944383	          0.06944382	          0.05000021	          0.05000068	          0.05000283	          0.40138315	          0.27798101	          0.17014082	          0.15724098	          0.56110067	          0.05000063	          0.05756054	          0.12245738	          0.12457363	
          1.08174757	         -2.91636785	         -1.46907860	          5.95972101	          1.35507236	          0.85602062	         -0.00246813	        -18.65219273	         -1.44107709	          8.10726574	         31.86922528	          2.25027543	         -3.67154429	         -9.15095267	        -19.32300687	         -0.90208209	         -0.94140994	         11.66882724	         -1.81453236	         -5.39098022	         -0.16064335	         28.04865236	          0.80373243	         -1.09503802	         -0.20061633	         -1.84886752	          5.22924201	        -13.48138342	         16.32469323	         -8.77210383	        -13.63986885	          8.51695211	         34.09263625	         16.81718225	         86.51662706	         86.51662706	          0.23307943	          0.08183998	          0.05000001	          0.27493418	          0.17112860	          0.08184102	          0.05000055	          0.05000006	          0.05000004	          0.06681726	          0.08479472	          0.18275514	          0.08101737	          0.05000064	          0.05000114	          0.05000090	          0.30019685	          0.06783137	          0.05000011	          0.05000051	          0.05000041	          0.05000040	          0.33538782	          0.58510756	          0.05000002	          0.05000007	          0.05000001	          0.25155982	          0.11899889	          0.05622617	          0.08861302	          0.27944012	          0.35710582	          0.22765313	          0.20124519	          0.19525907	          0.26792224	          0.05000000	          0.09469191	          0.15724749	          0.05000002	          0.05000000	          0.05000001	          0.05000000	          0.05000011	          0.05000002	          0.05000098	          0.05000015	          0.05000045	          0.05000011	          0.05000012	          0.05000026	          0.05892530	          0.05892529	          0.22299206	          0.05000006	          0.05000006	          0.11366526	          0.16251200	          0.21018355	          0.18612240	          0.12626491	          0.05000032	          0.05282166	          0.05892569	          0.05006170	          0.13125435	          0.13232973	          0.05892306	          0.05991527	          0.23794069	          0.05000047	          0.05000010	          0.05000009	          0.14225321	          0.14355672	          0.12178168	          0.05892531	          0.05892531	          0.05892530	          0.05000000	          0.05000012	          0.05000021	          0.45766870	          0.25591411	          0.15250777	          0.40334771	          0.59956231	          0.05000004	          0.05000001	          0.10390899	          0.10570469	
          1.09245794	         -2.90190507	         -1.57960488	          6.23058309	          1.37166761	          0.85488116	         -0.00228392	        -18.36798912	         -1.75844622	          7.92187866	         31.25960000	          2.68171904	         -3.42252945	        -11.26974311	        -19.34459369	         -1.89213217	         -1.33043634	         12.68664905	         -2.53662115	         -5.79951551	         -0.17972832	         28.87382949	          0.92548253	         -0.86411515	          0.05338263	         -1.91552640	          4.93335943	        -13.51713496	         16.61269867	         -9.83756084	        -13.63897663	          8.30394176	         35.12783727	         16.74158939	         86.51662706	         86.51662706	          0.19777533	          0.06944384	          0.05000017	          0.23329043	          0.14520808	          0.06944472	          0.05000077	          0.05000007	          0.05000012	          0.05669659	          0.07195109	          0.24408740	          0.21277690	          0.09798947	          0.05000088	          0.05000016	          0.25472764	          0.12214134	          0.05872435	          0.05000037	          0.05000020	          0.05000015	          0.28458724	          0.52108092	          0.05000017	          0.05892516	          0.05892531	          0.21345652	          0.10097445	          0.15786718	          0.15456671	          0.23711383	          0.30301565	          0.19317092	          0.17076295	          0.16568356	          0.22734056	          0.05144870	          0.08034911	          0.13342951	          0.05000002	          0.07579462	          0.05000010	          0.05052329	          0.06944383	          0.05885546	          0.05000001	          0.05000004	          0.05829815	          0.05000003	          0.05000004	          0.05000005	          0.05000001	          0.05000003	          0.18921604	          0.05000006	          0.05892524	          0.09644863	          0.13789664	          0.34040415	          0.24614887	          0.12606151	          0.05000005	          0.05000041	          0.05000040	          0.05892523	          0.14631261	          0.14269476	          0.05000004	          0.05084016	          0.49844599	          0.08569834	          0.06480069	          0.06944381	          0.22905378	          0.22394658	          0.19309122	          0.05000000	          0.05000000	          0.05000000	          0.05000171	          0.05892521	          0.05000012	          0.59311337	          0.21715127	          0.12940770	          0.45903240	          0.61955518	          0.14557826	          0.05000000	          0.08817008	          0.08969379	
          1.10316832	         -2.88354137	         -1.70157006	          6.47503390	          1.38847561	          0.85362093	         -0.00211769	        -17.99656106	         -2.06916724	          7.72386667	         30.49314071	          3.07203212	         -3.08718260	        -13.54131383	        -19.84053511	         -2.97186926	         -1.49325071	         13.63161297	         -3.31736113	         -6.12723592	         -0.32596336	         29.26243926	          1.03045425	         -0.61730628	          0.32557868	         -1.96991658	          4.56624209	        -13.55855643	         16.83162602	        -10.89384557	        -13.64692839	          8.17071940	         36.16749904	         16.65207886	         86.51662706	         86.51662706	          0.24613579	          0.05892531	          0.05000001	          0.19795440	          0.12321369	          0.05892607	          0.05000042	          0.05000008	          0.05000009	          0.05000001	          0.06105283	          0.22387264	          0.33349520	          0.08314741	          0.05892581	          0.11578125	          0.29507040	          0.10364105	          0.05000039	          0.05000173	          0.05000258	          0.05892182	          0.24148134	          0.48334610	          0.05000017	          0.05000016	          0.05000001	          0.18112465	          0.08568110	          0.13395537	          0.13115481	          0.20119863	          0.25711842	          0.16391167	          0.14489781	          0.14058779	          0.19290571	          0.14794997	          0.16946084	          0.16242574	          0.05000653	          0.20101383	          0.12835729	          0.07708567	          0.05892530	          0.05000007	          0.30627270	          0.31438191	          0.39291287	          0.18816729	          0.05000017	          0.35276988	          0.08741298	          0.05000024	          0.16647732	          0.05000001	          0.05000008	          0.08183992	          0.24572586	          0.28884380	          0.23258561	          0.16806427	          0.05000005	          0.06944341	          0.13212695	          0.05000002	          0.19908792	          0.15706512	          0.05892528	          0.05000020	          0.42294729	          0.07271779	          0.22569073	          0.05892529	          0.23392351	          0.24139729	          0.20853560	          0.05892530	          0.05892530	          0.05892530	          0.05000000	          0.05000005	          0.05000033	          0.53622657	          0.18425977	          0.10980656	          0.38950366	          0.58907945	          0.12352779	          0.05000001	          0.08184011	          0.07610804	
